# xmcd
#
# Track frame offsets:
#	150
#	11146
#	20918
#	30682
#	40021
#	50071
#	68696
#	78454
#	93269
#	107422
#	115305
#	125055
#	135342
#	145427
#	156960
#
# Disc length: 2226 seconds
#
# Revision: 1
# Processed by: cddbd v1.5.2PL0 Copyright (c) Steve Scherf et al.
# Submitted via: audiograbber 1.82.02
#
DISCID=cd08b00f
DTITLE=Burl Ives - The Very Best Of Burl Ives Christmas
DYEAR=1999
DGENRE=Christmas
TTITLE0=Overture and A Holly Jolly Christmas
TTITLE1=Rudolph The Red-Nosed Reindeer
TTITLE2=White Christmas
TTITLE3=Oh, Little Town Of Bethlehem
TTITLE4=Silver Bells
TTITLE5=Twelve Days Of Christmas
TTITLE6=Santa Claus Is Coming To Town
TTITLE7=The Little Drummer Boy
TTITLE8=What Child Is This
TTITLE9=Silver And Gold
TTITLE10=It Came Upon A Midnight Clear
TTITLE11=Winter Wonderland
TTITLE12=I Heard the Bells On Christmas Day
TTITLE13=Silent Night
TTITLE14=A Holly Jolly Christmas
EXTD=
EXTT0=
EXTT1=
EXTT2=
EXTT3=
EXTT4=
EXTT5=
EXTT6=
EXTT7=
EXTT8=
EXTT9=
EXTT10=
EXTT11=
EXTT12=
EXTT13=
EXTT14=
PLAYORDER=
